<svg width="28" height="32" viewBox="0 0 28 32" fill="none" xmlns="http://www.w3.org/2000/svg">
<path d="M18 14.2596L20.0422 18.3975L20.2749 18.8689L20.7951 18.9445L25.3616 19.6081L22.0573 22.829L21.6808 23.196L21.7697 23.7141L22.5497 28.2622L18.4653 26.1149L18 25.8702L17.5347 26.1149L13.4503 28.2622L14.2303 23.7141L14.3192 23.196L13.9427 22.829L10.6384 19.6081L15.2049 18.9445L15.7251 18.8689L15.9578 18.3975L18 14.2596Z" stroke="white" stroke-width="2"/>
<path d="M17 8.5C17 13.1944 13.1944 17 8.5 17C3.80558 17 0 13.1944 0 8.5C0 3.80558 3.80558 0 8.5 0C13.1944 0 17 3.80558 17 8.5Z" fill="#FFD325"/>
<path d="M9.10156 11H8.375V6.18359L6.91797 6.71875V6.0625L8.98828 5.28516H9.10156V11Z" fill="white"/>
</svg>
