<svg width="33" height="37" viewBox="0 0 33 37" fill="none" xmlns="http://www.w3.org/2000/svg">
<path fill-rule="evenodd" clip-rule="evenodd" d="M27 1H6C3.23858 1 1 3.23858 1 6C1 8.76142 3.23858 11 6 11H27C29.7614 11 32 8.76142 32 6C32 3.23858 29.7614 1 27 1ZM0 6C0 8.18638 1.16944 10.0996 2.91693 11.1484C1.23401 11.6206 0 13.1662 0 15V29C0 33.4183 3.58172 37 8 37H25C29.4183 37 33 33.4183 33 29V15C33 13.1662 31.766 11.6206 30.0831 11.1484C31.8306 10.0996 33 8.18638 33 6C33 2.68629 30.3137 0 27 0H6C2.68629 0 0 2.68629 0 6ZM6 12H27H29C30.6569 12 32 13.3431 32 15V29C32 32.866 28.866 36 25 36H8C4.13401 36 1 32.866 1 29V15C1 13.3431 2.34315 12 4 12H6ZM16.5 18C16.7761 18 17 17.7761 17 17.5C17 17.2239 16.7761 17 16.5 17C16.2239 17 16 17.2239 16 17.5C16 17.7761 16.2239 18 16.5 18Z" fill="white"/>
</svg>
