<svg width="37" height="37" viewBox="0 0 37 37" fill="none" xmlns="http://www.w3.org/2000/svg">
<path fill-rule="evenodd" clip-rule="evenodd" d="M29 1H8C4.13401 1 1 4.13401 1 8V29C1 32.866 4.13401 36 8 36H29C32.866 36 36 32.866 36 29V8C36 4.13401 32.866 1 29 1ZM8 0C3.58172 0 0 3.58172 0 8V29C0 33.4183 3.58172 37 8 37H29C33.4183 37 37 33.4183 37 29V8C37 3.58172 33.4183 0 29 0H8ZM18.5 26C22.6421 26 26 22.6421 26 18.5C26 14.3579 22.6421 11 18.5 11C14.3579 11 11 14.3579 11 18.5C11 22.6421 14.3579 26 18.5 26ZM18.5 27C23.1944 27 27 23.1944 27 18.5C27 13.8056 23.1944 10 18.5 10C13.8056 10 10 13.8056 10 18.5C10 23.1944 13.8056 27 18.5 27ZM30 7.78378C30.5523 7.78378 31 7.34817 31 6.81081C31 6.27345 30.5523 5.83784 30 5.83784C29.4477 5.83784 29 6.27345 29 6.81081C29 7.34817 29.4477 7.78378 30 7.78378Z" fill="white"/>
</svg>
