<svg width="27" height="37" viewBox="0 0 27 37" fill="none" xmlns="http://www.w3.org/2000/svg">
<path fill-rule="evenodd" clip-rule="evenodd" d="M1 1H26V36H0.999999L1 1ZM0 0.999999C0 0.447715 0.447715 0 1 0H26C26.5523 0 27 0.447715 27 1V36C27 36.5523 26.5523 37 26 37H0.999999C0.447715 37 0 36.5523 0 36V0.999999ZM3 4H24V32H3V4ZM2 3H3H24H25V4V32V33H24H3H2V32V4V3ZM13.5 35.5C14.0523 35.5 14.5 35.0523 14.5 34.5C14.5 33.9477 14.0523 33.5 13.5 33.5C12.9477 33.5 12.5 33.9477 12.5 34.5C12.5 35.0523 12.9477 35.5 13.5 35.5ZM12.5 1.5C12.2239 1.5 12 1.72386 12 2C12 2.27614 12.2239 2.5 12.5 2.5H14.5C14.7761 2.5 15 2.27614 15 2C15 1.72386 14.7761 1.5 14.5 1.5H12.5Z" fill="white"/>
</svg>
