<svg width="55" height="37" viewBox="0 0 55 37" fill="none" xmlns="http://www.w3.org/2000/svg">
<mask id="path-1-inside-1_131_26" fill="white">
<path fill-rule="evenodd" clip-rule="evenodd" d="M47 1H7V31H47V1ZM7 0C6.44772 0 6 0.447715 6 1V31C6 31.5523 6.44772 32 7 32H47C47.5523 32 48 31.5523 48 31V1C48 0.447715 47.5523 0 47 0H7Z"/>
</mask>
<path fill-rule="evenodd" clip-rule="evenodd" d="M47 1H7V31H47V1ZM7 0C6.44772 0 6 0.447715 6 1V31C6 31.5523 6.44772 32 7 32H47C47.5523 32 48 31.5523 48 31V1C48 0.447715 47.5523 0 47 0H7Z" fill="white"/>
<path d="M7 1V0H6V1H7ZM47 1H48V0H47V1ZM7 31H6V32H7V31ZM47 31V32H48V31H47ZM7 2H47V0H7V2ZM8 31V1H6V31H8ZM47 30H7V32H47V30ZM46 1V31H48V1H46ZM7 1V-1C5.89543 -1 5 -0.10457 5 1H7ZM7 31V1H5V31H7ZM7 31H7H5C5 32.1046 5.89543 33 7 33V31ZM47 31H7V33H47V31ZM47 31V33C48.1046 33 49 32.1046 49 31H47ZM47 1V31H49V1H47ZM47 1H49C49 -0.10457 48.1046 -1 47 -1V1ZM7 1H47V-1H7V1Z" fill="white" mask="url(#path-1-inside-1_131_26)"/>
<path fill-rule="evenodd" clip-rule="evenodd" d="M24.1366 33H1H0V34V34.9999C0 36.1045 0.895432 36.9999 2 36.9999H53C54.1046 36.9999 55 36.1045 55 34.9999V34V33H54H29.8634C29.6713 33.3542 29.2962 33.5947 28.8649 33.5947H25.1351C24.7038 33.5947 24.3287 33.3542 24.1366 33ZM1 34H54V34.9999C54 35.5522 53.5523 35.9999 53 35.9999H2C1.44772 35.9999 1 35.5522 1 34.9999V34Z" fill="white"/>
</svg>
