<svg width="20" height="20" viewBox="0 0 20 20" fill="none" xmlns="http://www.w3.org/2000/svg">
<path d="M13.0718 7.02879C13.0718 10.3574 10.3704 13.0576 7.03589 13.0576C3.70141 13.0576 1 10.3574 1 7.02879C1 3.70013 3.70141 1 7.03589 1C10.3704 1 13.0718 3.70013 13.0718 7.02879Z" stroke="white" stroke-width="2"/>
<mask id="path-2-inside-1_83_236" fill="white">
<path d="M9.87036 11.7336L11.2185 10.2562L19.2254 17.7987C19.6274 18.1774 19.6515 18.8151 19.2793 19.2231V19.2231C18.907 19.631 18.2793 19.6547 17.8773 19.2761L9.87036 11.7336Z"/>
</mask>
<path d="M9.87036 11.7336L8.41456 10.3622L7.06641 11.8395L8.52221 13.2109L9.87036 11.7336ZM11.2185 10.2562L12.5667 8.77891L11.1109 7.40755L9.76271 8.88488L11.2185 10.2562ZM11.3262 13.1049L12.6743 11.6276L9.76271 8.88488L8.41456 10.3622L11.3262 13.1049ZM9.87036 11.7336L17.8773 19.2761L20.5736 16.3214L12.5667 8.77891L9.87036 11.7336ZM19.2254 17.7987L11.2185 10.2562L8.52221 13.2109L16.5291 20.7534L19.2254 17.7987ZM17.8235 17.8517C18.1957 17.4438 18.8234 17.42 19.2254 17.7987L16.5291 20.7534C17.7352 21.8895 19.6182 21.8183 20.7351 20.5944L17.8235 17.8517ZM17.8773 19.2761C17.4753 18.8974 17.4512 18.2597 17.8235 17.8517L20.7351 20.5944C21.8519 19.3706 21.7796 17.4575 20.5736 16.3214L17.8773 19.2761Z" fill="white" mask="url(#path-2-inside-1_83_236)"/>
</svg>
