<svg width="37" height="37" viewBox="0 0 37 37" fill="none" xmlns="http://www.w3.org/2000/svg">
<path fill-rule="evenodd" clip-rule="evenodd" d="M7 1H30C33.3137 1 36 3.68629 36 7V30C36 33.3137 33.3137 36 30 36H7C3.68629 36 1 33.3137 1 30V7C1 3.68629 3.68629 1 7 1ZM0 7C0 3.13401 3.13401 0 7 0H30C33.866 0 37 3.13401 37 7V30C37 33.866 33.866 37 30 37H7C3.13401 37 0 33.866 0 30V7ZM26 17.9226L27 18.5L26 19.0774L15.25 25.2839L14.25 25.8612V24.7065V12.2935V11.1388L15.25 11.7161L26 17.9226ZM15.25 12.8708L25 18.5L15.25 24.1292V12.8708Z" fill="white"/>
</svg>
